<?xml version="1.0" encoding="iso-8859-1"?>
<!-- Uploaded to: SVG Repo, www.svgrepo.com, Generator: SVG Repo Mixer Tools -->
<svg fill="#000000" version="1.1" id="Layer_1" xmlns="http://www.w3.org/2000/svg" xmlns:xlink="http://www.w3.org/1999/xlink" 
	 viewBox="0 0 512 512" xml:space="preserve">
<g>
	<g>
		<path d="M298.846,0h-85.692C144.805,0,89.2,55.605,89.2,123.953V512h333.6V123.953C422.8,55.605,367.195,0,298.846,0z
			 M391.453,480.653H120.547v-356.7c0-51.063,41.543-92.606,92.607-92.606h85.692c51.064,0,92.607,41.543,92.607,92.606V480.653z"/>
	</g>
</g>
<g>
	<g>
		<path d="M256,38.796c-42.201,0-76.534,37.907-76.534,84.501s34.332,84.5,76.534,84.5s76.534-37.906,76.534-84.5
			C332.534,76.703,298.201,38.796,256,38.796z M256,70.143c14.405,0,27.248,7.981,35.529,20.369h-71.056
			C228.752,78.124,241.595,70.143,256,70.143z M256,176.45c-24.916,0-45.187-23.844-45.187-53.153c0-0.483,0.02-0.959,0.031-1.438
			h90.312c0.01,0.479,0.031,0.955,0.031,1.438C301.187,152.606,280.916,176.45,256,176.45z"/>
	</g>
</g>
<g>
	<g>
		<rect x="162.523" y="233.472" width="186.953" height="31.347"/>
	</g>
</g>
<g>
	<g>
		<rect x="162.523" y="316.082" width="186.953" height="31.347"/>
	</g>
</g>
<g>
	<g>
		<rect x="162.523" y="398.691" width="186.953" height="31.347"/>
	</g>
</g>
</svg>